<?xml version="1.0" encoding="UTF-8" standalone="no"?>
<!DOCTYPE svg PUBLIC "-//W3C//DTD SVG 1.1//EN" "http://www.w3.org/Graphics/SVG/1.1/DTD/svg11.dtd">
<svg width="100%" height="100%" viewBox="0 0 1772 616" version="1.1" xmlns="http://www.w3.org/2000/svg" xmlns:xlink="http://www.w3.org/1999/xlink" xml:space="preserve" xmlns:serif="http://www.serif.com/" style="fill-rule:evenodd;clip-rule:evenodd;stroke-linejoin:round;stroke-miterlimit:2;">
    <g transform="matrix(1,0,0,1,-886,-1291)">
        <g id="FOR-EXPORT" serif:id="FOR EXPORT" transform="matrix(2.23734,0,0,2.23734,477.442,638.535)">
            <g id="Таглайн" transform="matrix(1.20744,0,0,1.20744,-9.80503,19.1359)">
                <g transform="matrix(36,0,0,36,157.6,453.051)">
                    <path d="M0.195,0L0.047,0L0.047,-0.7L0.206,-0.7L0.206,-0.265L0.526,-0.7L0.674,-0.7L0.674,0L0.515,0L0.515,-0.432L0.195,0Z" style="fill:rgb(31,33,114);fill-rule:nonzero;"/>
                </g>
                <g transform="matrix(36,0,0,36,190.756,453.051)">
                    <path d="M0.206,0L0.047,0L0.047,-0.7L0.206,-0.7L0.206,-0.427L0.509,-0.427L0.509,-0.7L0.667,-0.7L0.667,0L0.509,0L0.509,-0.281L0.206,-0.281L0.206,0Z" style="fill:rgb(31,33,114);fill-rule:nonzero;"/>
                </g>
                <g transform="matrix(36,0,0,36,223.66,453.051)">
                    <path d="M0.202,0L0.006,0L0.282,-0.358L0.026,-0.7L0.222,-0.7L0.435,-0.415L0.435,-0.7L0.594,-0.7L0.594,-0.418L0.805,-0.7L1.001,-0.7L0.745,-0.358L1.021,0L0.825,0L0.594,-0.3L0.594,0L0.435,0L0.435,-0.302L0.202,0Z" style="fill:rgb(31,33,114);fill-rule:nonzero;"/>
                </g>
                <g transform="matrix(36,0,0,36,267.832,453.051)">
                    <path d="M0.047,-0.7L0.57,-0.7L0.57,-0.554L0.206,-0.554L0.206,-0.426L0.512,-0.426L0.512,-0.28L0.206,-0.28L0.206,-0.146L0.575,-0.146L0.575,0L0.047,0L0.047,-0.7Z" style="fill:rgb(31,33,114);fill-rule:nonzero;"/>
                </g>
                <g transform="matrix(36,0,0,36,296.704,453.051)">
                    <path d="M0.206,0L0.047,0L0.047,-0.7L0.206,-0.7L0.206,-0.427L0.509,-0.427L0.509,-0.7L0.667,-0.7L0.667,0L0.509,0L0.509,-0.281L0.206,-0.281L0.206,0Z" style="fill:rgb(31,33,114);fill-rule:nonzero;"/>
                </g>
                <g transform="matrix(36,0,0,36,329.608,453.051)">
                    <path d="M0.047,-0.7L0.57,-0.7L0.57,-0.554L0.206,-0.554L0.206,-0.426L0.512,-0.426L0.512,-0.28L0.206,-0.28L0.206,-0.146L0.575,-0.146L0.575,0L0.047,0L0.047,-0.7Z" style="fill:rgb(31,33,114);fill-rule:nonzero;"/>
                </g>
                <g transform="matrix(36,0,0,36,358.48,453.051)">
                    <path d="M0.206,-0.23L0.206,0L0.047,0L0.047,-0.7L0.365,-0.7C0.436,-0.7 0.496,-0.677 0.545,-0.632C0.594,-0.587 0.618,-0.532 0.618,-0.465C0.618,-0.398 0.594,-0.342 0.545,-0.297C0.498,-0.252 0.438,-0.23 0.365,-0.23L0.206,-0.23ZM0.365,-0.554L0.206,-0.554L0.206,-0.376L0.365,-0.376C0.39,-0.376 0.411,-0.385 0.428,-0.402C0.445,-0.419 0.453,-0.44 0.453,-0.465C0.453,-0.49 0.445,-0.511 0.428,-0.529C0.411,-0.546 0.39,-0.554 0.365,-0.554Z" style="fill:rgb(31,33,114);fill-rule:nonzero;"/>
                </g>
                <g transform="matrix(36,0,0,36,388.936,453.051)">
                    <path d="M0.206,0L0.047,0L0.047,-0.7L0.206,-0.7L0.206,-0.427L0.509,-0.427L0.509,-0.7L0.667,-0.7L0.667,0L0.509,0L0.509,-0.281L0.206,-0.281L0.206,0Z" style="fill:rgb(31,33,114);fill-rule:nonzero;"/>
                </g>
                <g transform="matrix(36,0,0,36,421.84,453.051)">
                    <path d="M0.172,0L0.006,0L0.301,-0.7L0.432,-0.7L0.726,0L0.561,0L0.513,-0.118L0.22,-0.118L0.172,0ZM0.455,-0.26L0.367,-0.475L0.279,-0.26L0.455,-0.26Z" style="fill:rgb(31,33,114);fill-rule:nonzero;"/>
                </g>
                <g transform="matrix(36,0,0,36,455.428,453.051)">
                    <path d="M0.35,-0.236L0.211,0L0.034,0L0.186,-0.26C0.144,-0.279 0.111,-0.307 0.087,-0.344C0.062,-0.381 0.05,-0.422 0.05,-0.468C0.05,-0.534 0.074,-0.589 0.121,-0.633C0.168,-0.678 0.228,-0.7 0.299,-0.7L0.627,-0.7L0.627,0L0.468,0L0.468,-0.236L0.35,-0.236ZM0.299,-0.382L0.468,-0.382L0.468,-0.554L0.299,-0.554C0.275,-0.554 0.255,-0.546 0.239,-0.53C0.223,-0.513 0.215,-0.493 0.215,-0.468C0.215,-0.443 0.223,-0.423 0.239,-0.407C0.255,-0.39 0.275,-0.382 0.299,-0.382Z" style="fill:rgb(31,33,114);fill-rule:nonzero;"/>
                </g>
                <g transform="matrix(36,0,0,36,502.912,453.051)">
                    <path d="M0.237,-0.554L0.021,-0.554L0.021,-0.7L0.611,-0.7L0.611,-0.554L0.395,-0.554L0.395,0L0.237,0L0.237,-0.554Z" style="fill:rgb(31,33,114);fill-rule:nonzero;"/>
                </g>
                <g transform="matrix(36,0,0,36,532.864,453.051)">
                    <path d="M0.195,0L0.047,0L0.047,-0.7L0.206,-0.7L0.206,-0.265L0.526,-0.7L0.674,-0.7L0.674,0L0.515,0L0.515,-0.432L0.195,0Z" style="fill:rgb(31,33,114);fill-rule:nonzero;"/>
                </g>
                <g transform="matrix(36,0,0,36,566.02,453.051)">
                    <path d="M0.206,-0.554L0.206,0L0.047,0L0.047,-0.7L0.667,-0.7L0.667,0L0.509,0L0.509,-0.554L0.206,-0.554Z" style="fill:rgb(31,33,114);fill-rule:nonzero;"/>
                </g>
                <g transform="matrix(36,0,0,36,598.924,453.051)">
                    <path d="M0.138,-0.091C0.068,-0.16 0.033,-0.246 0.033,-0.35C0.033,-0.454 0.068,-0.54 0.138,-0.609C0.209,-0.678 0.296,-0.713 0.4,-0.713C0.504,-0.713 0.591,-0.678 0.662,-0.609C0.733,-0.54 0.768,-0.454 0.768,-0.35C0.768,-0.246 0.733,-0.16 0.662,-0.091C0.591,-0.022 0.504,0.013 0.4,0.013C0.296,0.013 0.209,-0.022 0.138,-0.091ZM0.4,-0.139C0.457,-0.139 0.506,-0.159 0.545,-0.199C0.584,-0.24 0.603,-0.29 0.603,-0.35C0.603,-0.411 0.584,-0.461 0.545,-0.5C0.506,-0.541 0.458,-0.561 0.4,-0.561C0.343,-0.561 0.295,-0.541 0.256,-0.5C0.217,-0.461 0.198,-0.411 0.198,-0.35C0.198,-0.29 0.217,-0.24 0.256,-0.199C0.295,-0.159 0.343,-0.139 0.4,-0.139Z" style="fill:rgb(31,33,114);fill-rule:nonzero;"/>
                </g>
                <g transform="matrix(36,0,0,36,634.924,453.051)">
                    <path d="M0.206,-0.554L0.206,0L0.047,0L0.047,-0.7L0.516,-0.7L0.516,-0.554L0.206,-0.554Z" style="fill:rgb(31,33,114);fill-rule:nonzero;"/>
                </g>
                <g transform="matrix(36,0,0,36,661.456,453.051)">
                    <path d="M0.206,-0.23L0.206,0L0.047,0L0.047,-0.7L0.365,-0.7C0.436,-0.7 0.496,-0.677 0.545,-0.632C0.594,-0.587 0.618,-0.532 0.618,-0.465C0.618,-0.398 0.594,-0.342 0.545,-0.297C0.498,-0.252 0.438,-0.23 0.365,-0.23L0.206,-0.23ZM0.365,-0.554L0.206,-0.554L0.206,-0.376L0.365,-0.376C0.39,-0.376 0.411,-0.385 0.428,-0.402C0.445,-0.419 0.453,-0.44 0.453,-0.465C0.453,-0.49 0.445,-0.511 0.428,-0.529C0.411,-0.546 0.39,-0.554 0.365,-0.554Z" style="fill:rgb(31,33,114);fill-rule:nonzero;"/>
                </g>
                <g transform="matrix(36,0,0,36,688.528,453.051)">
                    <path d="M0.172,0L0.006,0L0.301,-0.7L0.432,-0.7L0.726,0L0.561,0L0.513,-0.118L0.22,-0.118L0.172,0ZM0.455,-0.26L0.367,-0.475L0.279,-0.26L0.455,-0.26Z" style="fill:rgb(31,33,114);fill-rule:nonzero;"/>
                </g>
                <g transform="matrix(36,0,0,36,720.856,453.051)">
                    <path d="M0.356,-0.646L0.356,-0.713L0.514,-0.713L0.514,-0.646C0.605,-0.645 0.681,-0.616 0.743,-0.559C0.806,-0.502 0.837,-0.433 0.837,-0.35C0.837,-0.267 0.806,-0.197 0.743,-0.14C0.682,-0.084 0.605,-0.055 0.514,-0.054L0.514,0.013L0.356,0.013L0.356,-0.054C0.264,-0.055 0.187,-0.084 0.126,-0.14C0.064,-0.197 0.033,-0.267 0.033,-0.35C0.033,-0.433 0.064,-0.502 0.126,-0.559C0.188,-0.616 0.265,-0.645 0.356,-0.646ZM0.514,-0.494L0.514,-0.207C0.557,-0.207 0.595,-0.221 0.626,-0.248C0.657,-0.276 0.672,-0.31 0.672,-0.35C0.672,-0.391 0.657,-0.425 0.626,-0.452C0.595,-0.48 0.558,-0.494 0.514,-0.494ZM0.356,-0.207L0.356,-0.494C0.312,-0.494 0.275,-0.48 0.244,-0.452C0.213,-0.425 0.198,-0.391 0.198,-0.35C0.198,-0.31 0.213,-0.276 0.244,-0.248C0.275,-0.221 0.313,-0.207 0.356,-0.207Z" style="fill:rgb(31,33,114);fill-rule:nonzero;"/>
                </g>
                <g transform="matrix(36,0,0,36,759.376,453.051)">
                    <path d="M0.195,0L0.047,0L0.047,-0.7L0.206,-0.7L0.206,-0.265L0.526,-0.7L0.674,-0.7L0.674,0L0.515,0L0.515,-0.432L0.195,0Z" style="fill:rgb(31,33,114);fill-rule:nonzero;"/>
                </g>
                <g transform="matrix(36,0,0,36,792.532,453.051)">
                    <path d="M0.35,-0.236L0.211,0L0.034,0L0.186,-0.26C0.144,-0.279 0.111,-0.307 0.087,-0.344C0.062,-0.381 0.05,-0.422 0.05,-0.468C0.05,-0.534 0.074,-0.589 0.121,-0.633C0.168,-0.678 0.228,-0.7 0.299,-0.7L0.627,-0.7L0.627,0L0.468,0L0.468,-0.236L0.35,-0.236ZM0.299,-0.382L0.468,-0.382L0.468,-0.554L0.299,-0.554C0.275,-0.554 0.255,-0.546 0.239,-0.53C0.223,-0.513 0.215,-0.493 0.215,-0.468C0.215,-0.443 0.223,-0.423 0.239,-0.407C0.255,-0.39 0.275,-0.382 0.299,-0.382Z" style="fill:rgb(31,33,114);fill-rule:nonzero;"/>
                </g>
            </g>
            <g id="_-Rectangle-" serif:id="(Rectangle)" transform="matrix(1.18793e-16,-1.94004,1.52133,9.31544e-17,14.1917,829.957)">
                <rect x="166.666" y="110.653" width="110.731" height="360.18" style="fill:rgb(31,33,114);"/>
            </g>
            <g transform="matrix(1,0,0,1,117.514,62.706)">
                <g transform="matrix(1,0,0,1,21.8884,-0.108356)">
                    <g transform="matrix(1.15721,0,0,1.15721,-114.384,-52.919)">
                        <g transform="matrix(4.87092,-1.97215e-31,1.97215e-31,4.87092,-5358.4,-135.924)">
                            <path d="M1268.51,77.938L1230.4,77.938L1249.43,101.777L1268.51,77.938Z" style="fill:rgb(191,57,164);"/>
                        </g>
                        <g transform="matrix(26.6035,0,0,31.4039,-4209.3,-1350.23)">
                            <path d="M182.084,56.673L182.084,50.756L183.28,51.774L185.572,54.458L185.572,56.673L182.084,56.673Z" style="fill:rgb(245,216,12);"/>
                        </g>
                        <g transform="matrix(4.87092,0,0,4.87092,-5358.4,-135.924)">
                            <path d="M1249.45,101.805L1249.45,116.085L1268.51,116.085L1268.51,77.938L1261.97,84.499L1249.45,101.805Z" style="fill:rgb(37,189,238);"/>
                        </g>
                    </g>
                    <g transform="matrix(1.27158,0,0,1.2691,475.598,-203.434)">
                        <path d="M171.559,413.151L171.559,481.104L142.668,481.104L142.668,369.962L171.559,369.962L198.057,403.773L224.919,369.962L253.663,369.962L253.663,481.104L224.919,481.104L224.919,413.151L198.057,446.962L171.559,413.151Z" style="fill:rgb(31,33,114);"/>
                    </g>
                </g>
                <g transform="matrix(187.436,0,0,187.07,420.222,407.028)">
                    <path d="M0.079,0L0.079,-0.754L0.275,-0.754L0.637,-0.293L0.637,-0.754L0.832,-0.754L0.832,0L0.637,0L0.275,-0.461L0.275,0L0.079,0Z" style="fill:white;fill-rule:nonzero;"/>
                </g>
                <g transform="matrix(187.361,0,0,187.07,252.483,407.136)">
                    <path d="M0.25,-0.377C0.25,-0.347 0.256,-0.319 0.267,-0.294C0.278,-0.269 0.294,-0.247 0.313,-0.228C0.332,-0.209 0.355,-0.195 0.381,-0.185C0.406,-0.174 0.433,-0.169 0.462,-0.169C0.491,-0.169 0.518,-0.174 0.544,-0.185C0.569,-0.195 0.592,-0.209 0.612,-0.228C0.631,-0.247 0.647,-0.269 0.658,-0.294C0.669,-0.319 0.675,-0.347 0.675,-0.377C0.675,-0.407 0.669,-0.435 0.658,-0.46C0.647,-0.485 0.631,-0.507 0.612,-0.526C0.592,-0.545 0.569,-0.559 0.544,-0.57C0.518,-0.58 0.491,-0.585 0.462,-0.585C0.433,-0.585 0.406,-0.58 0.381,-0.57C0.355,-0.559 0.332,-0.545 0.313,-0.526C0.294,-0.507 0.278,-0.485 0.267,-0.46C0.256,-0.435 0.25,-0.407 0.25,-0.377ZM0.045,-0.377C0.045,-0.433 0.055,-0.485 0.076,-0.534C0.097,-0.582 0.125,-0.624 0.162,-0.66C0.199,-0.696 0.243,-0.724 0.294,-0.745C0.345,-0.765 0.401,-0.775 0.462,-0.775C0.523,-0.775 0.579,-0.765 0.63,-0.745C0.681,-0.724 0.725,-0.696 0.763,-0.66C0.8,-0.624 0.828,-0.582 0.849,-0.534C0.87,-0.485 0.88,-0.433 0.88,-0.377C0.88,-0.321 0.87,-0.269 0.849,-0.221C0.828,-0.172 0.8,-0.13 0.763,-0.094C0.725,-0.058 0.681,-0.03 0.63,-0.01C0.579,0.011 0.523,0.021 0.462,0.021C0.401,0.021 0.345,0.011 0.294,-0.01C0.243,-0.03 0.199,-0.058 0.162,-0.094C0.125,-0.13 0.097,-0.172 0.076,-0.221C0.055,-0.269 0.045,-0.321 0.045,-0.377Z" style="fill:white;fill-rule:nonzero;"/>
                </g>
                <g transform="matrix(1.00434,0,0,1,-87.6128,-31.9725)">
                    <g transform="matrix(187.07,0,0,187.07,173.832,439)">
                        <path d="M0.275,-0.754L0.275,-0.166L0.51,-0.166L0.51,0L0.079,0L0.079,-0.754L0.275,-0.754Z" style="fill:white;fill-rule:nonzero;"/>
                    </g>
                    <g transform="matrix(187.07,0,0,187.07,277.695,439)">
                        <rect x="0.079" y="-0.754" width="0.196" height="0.754" style="fill:white;fill-rule:nonzero;"/>
                    </g>
                </g>
            </g>
        </g>
    </g>
</svg>
